# xmcd CD database file
#
# Track frame offsets:
#	183
#	13895
#	27145
#	40788
#	54715
#	69790
#	84018
#	97880
#	110723
#	123210
#	132918
#	147175
#	161210
#	174730
#	188765
#	203005
#	216373
#	230078
#	243390
#	256733
#	271240
#	285523
#
# Disc length: 4002 seconds
#
# Revision: 0
# Processed by: cddbd v1.5PL3 Copyright (c) Steve Scherf et al.
# Submitted via: CDex 1.50
#
DISCID=320fa016
DTITLE=Billie Holiday - An Introduction To Billie Holiday - Her Best Recordings 1935-1942
DYEAR=1993
DGENRE=Jazz
TTITLE0=What A Little Moonlight Can Do
TTITLE1=I Must Have That Man
TTITLE2=The Mood That I'm In
TTITLE3=Moanin' Low
TTITLE4=Yours And Mine
TTITLE5=Mean To Me
TTITLE6=I'll Never Be The Same
TTITLE7=A Sailboat In The Moonlight
TTITLE8=I Can't Believe That You're In Love With Me
TTITLE9=I'm Gonna Lock My Heart (And Throw Away The Key)
TTITLE10=More Than You Know
TTITLE11=Strange Fruit
TTITLE12=Night And Day
TTITLE13=The Man I Love
TTITLE14=Tell Me More
TTITLE15=Let's Do It
TTITLE16=All Of Me
TTITLE17=God Bless The Child
TTITLE18=I Cover The Waterfront
TTITLE19=Gloomy Sunday
TTITLE20=Until The Real Thing Comes Along
TTITLE21=Trav'lin' Light
EXTD=YEAR: 1993
EXTT0=
EXTT1=
EXTT2=
EXTT3=
EXTT4=
EXTT5=
EXTT6=
EXTT7=
EXTT8=
EXTT9=
EXTT10=
EXTT11=
EXTT12=
EXTT13=
EXTT14=
EXTT15=
EXTT16=
EXTT17=
EXTT18=
EXTT19=
EXTT20=
EXTT21=
PLAYORDER=
